# xmcd
#
# Track frame offsets:
#	150
#	33437
#	47279
#	64307
#	103307
#	116627
#	130486
#	147199
#	173583
#	197447
#	209532
#	225408
#	250152
#	265797
#	280294
#	295814
#	311645
#
# Disc length: 4546 seconds
#
# Revision: 1
# Processed by: cddbd v1.5PL3 Copyright (c) Steve Scherf et al.
# Submitted via: audiograbber 1.83.01
#
DISCID=fc11c011
DTITLE=Various Artist - Night Club 8. (2001)
DYEAR=1900
DGENRE=
TTITLE0=Klubbheads. - Hiphopping. (Hip Hop Don't Stop)
TTITLE1=2 In A Room. - Wiggle It. (Klubbheads 2001 Radio Edit)
TTITLE2=Corny. - Without Your Love. (Radio Edit)
TTITLE3=Musique vs. U2. - New Years Dub. (Original 12" Mix)
TTITLE4=Coast 2 Coast feat. Discovery. - Home. (Radio Edit)
TTITLE5=Tall Paul vs. Inxs. - Precious Heart. (Riva Edit)
TTITLE6=Jan Johnston. - Flash. (Paul Oakenfold Radio Edit)
TTITLE7=Trevor and Simon. - Hands Up. (Dj Jean Mix)
TTITLE8=2XL. - Got To Get Down. (Trance Mix)
TTITLE9=Blank and Jones. - DJs, Fans and Freak. (D.F.F.) (Short Cut)
TTITLE10=Clubbstars. - Theee Sound's. (Dj Scotty Radio Edit)
TTITLE11=Dj Ko. - Sound Wave 1.  (Original Mix)
TTITLE12=Future Breeze. - Temple Of Dreams. (Radio Edit)
TTITLE13=Mario Piu Aka Dj Arabesque. - The Vision. (Vision 1 On Air Mix)
TTITLE14=Paffendorf. - Be Cool. (Radio Mix)
TTITLE15=Rank 1 feat. Shanokee. - Such Is Life. (Radio Edit)
TTITLE16=Dj Max and Arrival Project. - Do You Understand? (DGP Mix)
EXTD=
EXTT0=
EXTT1=
EXTT2=
EXTT3=
EXTT4=
EXTT5=
EXTT6=
EXTT7=
EXTT8=
EXTT9=
EXTT10=
EXTT11=
EXTT12=
EXTT13=
EXTT14=
EXTT15=
EXTT16=
PLAYORDER=
